<?xml version="1.0" standalone="no"?>
<svg xmlns="http://www.w3.org/2000/svg" viewBox="0 0 39.567 45.688" width="39.567" height="45.688"><polygon fill="#9a1212" points="39.567,11.422 39.567,34.266000000000005 19.7835,45.688 0,34.266000000000005 0,11.422 19.7835,0"></polygon><path fill="white" fill-rule="nonzero" d="M6.29 16.72L0 16.72L0 16.20L1.80 16.08L1.80 0.64L0 0.53L0 0L5.91 0Q8.29 0 9.98 0.60Q11.68 1.20 12.67 2.33Q13.66 3.47 14.12 4.97Q14.57 6.47 14.57 8.44L14.57 8.44Q14.57 9.86 14.27 11.08Q13.98 12.30 13.34 13.35Q12.70 14.40 11.75 15.15Q10.79 15.89 9.40 16.31Q8.02 16.72 6.29 16.72L6.29 16.72ZM4.80 0.76L4.80 15.96Q5.44 16.08 5.95 16.08L5.95 16.08Q7.15 16.08 8.08 15.69Q9.01 15.30 9.64 14.62Q10.27 13.93 10.68 12.94Q11.09 11.95 11.27 10.79Q11.45 9.63 11.45 8.25L11.45 8.25Q11.45 6.89 11.32 5.82Q11.19 4.76 10.83 3.75Q10.48 2.74 9.89 2.09Q9.30 1.43 8.34 1.04Q7.38 0.64 6.09 0.64L6.09 0.64Q5.44 0.64 4.80 0.76L4.80 0.76Z" transform="translate(12.501, 14.483)"></path></svg>